<?xml version="1.0" standalone="no"?>
<!DOCTYPE svg PUBLIC "-//W3C//DTD SVG 20010904//EN"
 "http://www.w3.org/TR/2001/REC-SVG-20010904/DTD/svg10.dtd">
<svg version="1.0" xmlns="http://www.w3.org/2000/svg"
 width="3296.000000pt" height="3296.000000pt" viewBox="0 0 3296.000000 3296.000000"
 preserveAspectRatio="xMidYMid meet">
<metadata>
Created by potrace 1.14, written by Peter Selinger 2001-2017
</metadata>
<g transform="translate(0.000000,3296.000000) scale(0.100000,-0.100000)"
fill="#000000" stroke="none">
<path d="M6020 28470 l0 -1500 -1500 0 -1500 0 0 -1500 0 -1500 -1500 0 -1500
0 0 -3000 0 -3000 1500 0 1500 0 0 -1500 0 -1500 1500 0 1500 0 0 -1500 0
-1500 1490 0 1490 0 0 -1490 0 -1490 1500 0 1500 0 0 -1500 0 -1500 1490 0
1490 0 0 -1500 0 -1500 1500 0 1500 0 0 1500 0 1500 1500 0 1500 0 0 1500 0
1500 1500 0 1500 0 0 1490 0 1490 1470 0 1470 0 0 1500 0 1500 -1500 0 -1500
0 0 -1490 0 -1490 -1470 0 -1470 0 0 -1500 0 -1500 -1500 0 -1500 0 0 -1500 0
-1500 -1490 0 -1490 0 0 1500 0 1500 -1500 0 -1500 0 0 1500 0 1500 -1490 0
-1490 0 0 1490 0 1490 -1500 0 -1500 0 0 1500 0 1500 -1500 0 -1500 0 0 3000
0 3000 1500 0 1500 0 0 1500 0 1500 2990 0 2990 0 0 -1500 0 -1500 1490 0
1490 0 0 -1500 0 -1500 1500 0 1500 0 0 1500 0 1500 1500 0 1500 0 0 1500 0
1500 2970 0 2970 0 0 1500 0 1500 -2970 0 -2970 0 0 -1500 0 -1500 -1500 0
-1500 0 0 -1500 0 -1500 -1490 0 -1490 0 0 1500 0 1500 -1500 0 -1500 0 0
1500 0 1500 -2990 0 -2990 0 0 -1500z"/>
<path d="M26940 25470 l0 -1500 1500 0 1500 0 0 -3000 0 -3000 -1500 0 -1500
0 0 -1500 0 -1500 1500 0 1500 0 0 1500 0 1500 1500 0 1500 0 0 3000 0 3000
-1500 0 -1500 0 0 1500 0 1500 -1500 0 -1500 0 0 -1500z"/>
</g>
</svg>
