<?xml version="1.0" standalone="no"?>
<!DOCTYPE svg PUBLIC "-//W3C//DTD SVG 20010904//EN"
 "http://www.w3.org/TR/2001/REC-SVG-20010904/DTD/svg10.dtd">
<svg version="1.0" xmlns="http://www.w3.org/2000/svg"
 width="700.000000pt" height="700.000000pt" viewBox="0 0 700.000000 700.000000"
 preserveAspectRatio="xMidYMid meet">
<metadata>
Created by potrace 1.14, written by Peter Selinger 2001-2017
</metadata>
<g transform="translate(0.000000,700.000000) scale(0.100000,-0.100000)"
fill="#000000" stroke="none">
<path d="M3644 3428 c-956 -1656 -1740 -3019 -1742 -3027 -2 -14 -1 -14 10 0
7 9 794 1369 1748 3022 954 1653 1736 3004 1738 3002 3 -2 -779 -1361 -1737
-3020 -958 -1658 -1741 -3017 -1741 -3019 0 -7 171 -87 279 -131 203 -83 435
-151 661 -194 399 -76 891 -76 1290 0 792 151 1503 567 2025 1184 443 524 711
1143 801 1850 25 195 25 614 1 810 -59 460 -190 873 -404 1267 -256 471 -643
901 -1080 1199 -56 38 -103 69 -106 69 -2 0 -786 -1355 -1743 -3012z"/>
</g>
</svg>
